<svg width="16" height="16" viewBox="0 0 16 16" fill="none" xmlns="http://www.w3.org/2000/svg">
<path fill-rule="evenodd" clip-rule="evenodd" d="M2.62478 2.6321L0.183832 2.99977L0 1.7793L3.66142 1.2278L4.21291 4.88922L2.99244 5.07305L2.62478 2.6321Z" fill="#707276"/>
<path fill-rule="evenodd" clip-rule="evenodd" d="M3.50063 1.53094C1.45517 2.95985 0.117188 5.33177 0.117188 8.01619C0.117188 12.3822 3.65657 15.9216 8.02262 15.9216C12.3887 15.9216 15.9281 12.3822 15.9281 8.01619C15.9281 3.66276 12.4091 0.131229 8.06048 0.11084L8.03543 1.11076C11.8433 1.11767 14.9281 4.20669 14.9281 8.01619C14.9281 11.83 11.8364 14.9216 8.02262 14.9216C4.20886 14.9216 1.11719 11.83 1.11719 8.01619C1.11719 5.8265 2.13636 3.87485 3.72622 2.60974L3.50063 2.61555V1.99843V1.53094Z" fill="#707276"/>
</svg>
